<?xml version="1.0" encoding="UTF-8"?>
<svg version="1.1" xmlns="http://www.w3.org/2000/svg" width="700" height="700">
<path d="M0 0 C231 0 462 0 700 0 C700 231 700 462 700 700 C469 700 238 700 0 700 C0 469 0 238 0 0 Z " fill="#0000A4" transform="translate(0,0)"/>
<path d="M0 0 C25.08 0 50.16 0 76 0 C76 20.79 76 41.58 76 63 C84.91 60.525 84.91 60.525 94 58 C103.98392134 56.18771904 113.55563466 55.69025436 123.6875 55.75 C125.02409223 55.74284636 126.36068111 55.7350353 127.69726562 55.7265625 C151.50699051 55.7737806 172.52931668 63.99087959 191 79 C191.70511719 79.54011719 192.41023437 80.08023438 193.13671875 80.63671875 C211.32088836 95.27995472 223.24961011 119.39111997 225.7890625 142.38085938 C228.09887275 171.06100337 224.28608814 199.95925093 205.0703125 222.546875 C202.16523228 225.81898618 199.11982073 228.93342595 196 232 C195.23816406 232.76054687 194.47632813 233.52109375 193.69140625 234.3046875 C179.12802931 248.03968887 157.0547188 258.13800942 136.84963989 258.12025452 C135.6406711 258.12163201 134.43170231 258.12300951 133.1860981 258.12442875 C131.86801092 258.12083064 130.54992374 258.11723253 129.19189453 258.11352539 C127.75940389 258.11321882 126.3269131 258.11335295 124.89442253 258.11389065 C121.06802472 258.11411585 117.24165835 258.10833175 113.41526794 258.10128021 C109.82103377 258.09557348 106.22680714 258.09531645 102.63256836 258.09460449 C92.13004143 258.089363 81.62752031 258.0754018 71.125 258.0625 C47.65375 258.041875 24.1825 258.02125 0 258 C0 172.86 0 87.72 0 0 Z " fill="#FEFEFE" transform="translate(76,219)"/>
<path d="M0 0 C0.77760681 -0.00004028 1.55521362 -0.00008057 2.35638428 -0.00012207 C16.08251078 0.04120312 29.62385568 0.95310551 42.8125 5.0625 C43.65095459 5.31974854 44.48940918 5.57699707 45.35327148 5.84204102 C53.66138357 8.50539202 61.29912518 12.14006136 68.875 16.4375 C69.88046875 17.00339844 70.8859375 17.56929688 71.921875 18.15234375 C93.42130415 31.05807452 106.58932508 51.5900409 112.875 75.4375 C113.27489136 76.90993164 113.27489136 76.90993164 113.68286133 78.41210938 C115.71990734 86.45494003 116.34862671 93.96994368 116.25 102.25 C116.23694824 104.08594727 116.23694824 104.08594727 116.22363281 105.95898438 C116.07556139 115.1199935 115.28298009 123.58739136 112.875 132.4375 C112.60816406 133.45972656 112.34132813 134.48195313 112.06640625 135.53515625 C108.48366789 147.62092698 102.09411989 158.92158563 93.875 168.4375 C93.29492188 169.16066406 92.71484375 169.88382813 92.1171875 170.62890625 C75.49631051 190.62263903 48.94008538 202.21373875 23.47265625 205.1328125 C22.28542969 205.23335937 21.09820312 205.33390625 19.875 205.4375 C19.17616699 205.49776367 18.47733398 205.55802734 17.75732422 205.62011719 C-16.96817608 208.45454584 -53.49091334 203.52550101 -80.9140625 180.359375 C-81.64367187 179.72515625 -82.37328125 179.0909375 -83.125 178.4375 C-84.10726563 177.65117187 -85.08953125 176.86484375 -86.1015625 176.0546875 C-101.90532053 162.37443184 -113.60873849 138.18838798 -115.125 117.4375 C-116.49189825 88.20905241 -113.44631948 61.81482166 -94.125 38.4375 C-93.44953125 37.59960938 -92.7740625 36.76171875 -92.078125 35.8984375 C-69.15213665 8.87254612 -34.13919897 -0.07374033 0 0 Z " fill="#FEFEFE" transform="translate(431.125,274.5625)"/>
<path d="M0 0 C24.75 0 49.5 0 75 0 C75 85.14 75 170.28 75 258 C50.25 258 25.5 258 0 258 C0 172.86 0 87.72 0 0 Z " fill="#FFFFFF" transform="translate(565,219)"/>
<path d="M0 0 C1.02416016 -0.01611328 2.04832031 -0.03222656 3.10351562 -0.04882812 C14.43967454 -0.05607168 24.48781604 3.37628603 32.94921875 11.1640625 C34.78629709 13.16452525 36.39303467 15.07356783 37.9375 17.3125 C38.36256836 17.90981934 38.78763672 18.50713867 39.22558594 19.12255859 C43.46171974 25.72700777 43.69505767 31.60648074 43.5625 39.3125 C43.58183594 40.4365625 43.60117188 41.560625 43.62109375 42.71875 C43.57738356 50.20193452 42.30127965 55.22250384 37.9375 61.3125 C37.28394531 62.24835938 36.63039063 63.18421875 35.95703125 64.1484375 C28.79024048 71.82813206 17.83698898 77.03111019 7.37573242 77.45776367 C6.0148548 77.47102893 4.65390926 77.47828273 3.29296875 77.48046875 C2.56435135 77.48379715 1.83573395 77.48712555 1.08503723 77.49055481 C-0.45217257 77.49560097 -1.98939325 77.49796385 -3.52661133 77.49780273 C-5.85712106 77.49998327 -8.18715235 77.51814681 -10.51757812 77.53710938 C-12.01822757 77.54004513 -13.51887923 77.54202871 -15.01953125 77.54296875 C-16.04963066 77.55374702 -16.04963066 77.55374702 -17.10054016 77.56474304 C-22.27365339 77.54077219 -25.78351059 76.63224735 -31.0625 75.3125 C-31.0625 52.2125 -31.0625 29.1125 -31.0625 5.3125 C-20.23695017 1.70398339 -11.35516164 -0.03586596 0 0 Z " fill="#0101A4" transform="translate(183.0625,336.6875)"/>
<path d="M0 0 C10.78029434 6.36214092 17.65540631 15.23114086 20.8671875 27.54296875 C22.5415733 40.06002358 19.76287706 50.80937005 12.1875 60.9375 C4.84402158 69.11123523 -4.54450366 74.21493872 -15.5390625 75.17578125 C-28.01639081 75.49528157 -37.56043155 71.29884136 -46.8125 62.9375 C-53.80265921 54.90136806 -57.39548572 46.76378632 -57.25 36.125 C-57.24170166 35.33746338 -57.23340332 34.54992676 -57.22485352 33.73852539 C-56.91696646 23.06108988 -53.37525601 14.57228226 -45.8125 6.9375 C-33.13217878 -3.694939 -15.35123119 -7.88626895 0 0 Z " fill="#0101A4" transform="translate(449.8125,342.0625)"/>
<path d="M0 0 C0 30.36 0 60.72 0 92 C-14.47629618 92 -25.79720542 88.7254173 -36.625 79 C-46.17916912 68.8330932 -50.47660297 56.54791261 -50.24609375 42.78515625 C-49.62432551 33.22176861 -46.44135255 25.81356782 -41 18 C-40.55914063 17.36191406 -40.11828125 16.72382813 -39.6640625 16.06640625 C-29.825796 3.29940723 -15.2959412 0 0 0 Z " fill="#FDFDFE" transform="translate(700,389)"/>
</svg>
